<svg width="87" height="59" viewBox="0 0 87 59" fill="none" xmlns="http://www.w3.org/2000/svg">
<path d="M37.4098 33.482L37.4096 33.4937V33.5055C37.4096 36.8081 35.1159 39.1693 32.6001 39.1693C30.1373 39.1693 27.7906 36.798 27.7906 33.5055C27.7906 30.2029 30.0843 27.8418 32.6001 27.8418C35.1351 27.8418 37.461 30.2209 37.4098 33.482ZM50.3687 33.5055C50.3687 30.2029 52.6624 27.8418 55.1782 27.8418C57.694 27.8418 59.9877 30.2029 59.9877 33.5055C59.9877 36.8081 57.694 39.1693 55.1782 39.1693C52.7154 39.1693 50.3687 36.798 50.3687 33.5055Z" stroke="white" stroke-width="3"/>
<path d="M36.6991 51.0907C33.5933 50.4566 30.5496 49.5277 27.606 48.3155M36.6991 51.0907C41.9892 52.151 47.4224 52.1729 52.7202 51.1552L27.606 48.3155M36.6991 51.0907L36.8991 50.1109C36.8983 50.1107 36.8975 50.1106 36.8967 50.1104M36.6991 51.0907L36.8956 50.1102C36.896 50.1102 36.8964 50.1103 36.8967 50.1104M27.606 48.3155C26.0968 47.71 24.6281 46.9998 23.2099 46.1898L27.606 48.3155ZM36.8967 50.1104C33.8539 49.489 30.8715 48.5788 27.9868 47.3909L27.9868 47.3908L27.9783 47.3874C26.4818 46.787 25.0261 46.0806 23.6212 45.273C23.4899 45.1855 23.3661 45.121 23.2864 45.0794L23.2745 45.0733C23.1755 45.0216 23.1376 45.0005 23.1047 44.9776L23.0525 44.9413L23.0182 44.9234L23.0082 44.913L22.9102 44.8107L22.7877 44.7397C22.249 44.4275 21.8322 44.1634 21.5529 43.9793C21.4133 43.8873 21.3081 43.8154 21.2393 43.7675C21.2049 43.7436 21.1795 43.7257 21.1636 43.7143L21.1467 43.7022L21.144 43.7002L21.1439 43.7001C21.1439 43.7001 21.1439 43.7001 21.1435 43.7007L19.6873 45.0063L20.5542 44.5078C19.6873 45.0063 19.6876 45.0067 19.6878 45.0071L19.6884 45.0081L19.6897 45.0104L19.6932 45.0164L19.7036 45.034C19.712 45.0482 19.7235 45.0672 19.7381 45.0909C19.7672 45.1381 19.8087 45.2038 19.863 45.286C19.9717 45.4504 20.132 45.6809 20.3477 45.9619C20.7791 46.5236 21.4332 47.2883 22.3412 48.1295C23.9539 49.6234 26.3656 51.3564 29.7442 52.6198C29.0685 53.5022 28.3882 54.38 27.8222 55.1069C27.4209 55.6221 27.0776 56.0609 26.8346 56.3708C26.8103 56.4017 26.7871 56.4313 26.7649 56.4595C20.4436 56.1417 16.0864 53.8445 13.2981 51.6235C11.863 50.4802 10.8389 49.3531 10.1775 48.5184C9.84698 48.1013 9.60779 47.7581 9.45381 47.5238C9.42177 47.4751 9.39344 47.4311 9.36875 47.3921C9.40799 37.2486 11.5868 28.0577 13.7724 21.3751C14.8743 18.006 15.9756 15.2815 16.7997 13.4027C17.2117 12.4635 17.5541 11.7362 17.7924 11.2459C17.9093 11.0052 18.0012 10.8217 18.0638 10.6984C22.3301 7.40302 26.4737 5.79559 29.5538 5.01141C29.5731 5.00649 29.5925 5.00159 29.6117 4.99673C26.6029 6.24286 24.2195 7.55109 22.4317 8.68322C21.0593 9.55225 20.0382 10.3173 19.3548 10.8705C19.0131 11.1471 18.7557 11.3707 18.581 11.528C18.4937 11.6066 18.427 11.6687 18.3807 11.7125C18.3576 11.7343 18.3396 11.7517 18.3267 11.7642L18.3111 11.7794L18.3062 11.7843L18.3044 11.786L18.3037 11.7867C18.3034 11.787 18.3031 11.7873 19.0077 12.4968L18.3031 11.7873L19.5019 13.3654L19.5023 13.366L19.5024 13.366L19.5026 13.3658L19.5048 13.3646L19.5151 13.3588L19.5589 13.3341C19.5985 13.312 19.6583 13.2787 19.7377 13.2351C19.8965 13.1479 20.1332 13.0194 20.4413 12.8567C21.056 12.5321 21.954 12.0715 23.0818 11.5307C29.5808 8.55355 34.7226 7.74006 36.7881 7.55535L36.8295 7.55165L36.8704 7.54454C36.9214 7.53567 36.9692 7.52725 37.0143 7.5193C37.3331 7.46314 37.5199 7.43024 37.7507 7.43024H37.8209L37.8905 7.42042C48.3943 5.93712 59.0791 8.01926 68.3664 13.3636L69.5689 11.7864L68.8651 12.4968C69.5689 11.7864 69.5686 11.7861 69.5683 11.7858L69.5676 11.7851L69.5659 11.7835L69.5612 11.7788L69.5463 11.7643C69.534 11.7524 69.5168 11.7359 69.4947 11.715C69.4507 11.6734 69.3871 11.6143 69.304 11.5394C69.1377 11.3896 68.893 11.1764 68.5682 10.9123C67.9187 10.3841 66.9492 9.65202 65.6478 8.81585C63.6192 7.51239 60.785 5.9563 57.1013 4.52508C57.7792 4.63449 58.5634 4.79013 59.4325 5.01141C62.5126 5.79559 66.6562 7.40301 70.9225 10.6984C70.9851 10.8217 71.077 11.0052 71.1939 11.2459C71.4322 11.7362 71.7746 12.4635 72.1866 13.4027C73.0107 15.2815 74.112 18.006 75.2139 21.3751C77.3993 28.0571 79.578 37.247 79.6176 47.3895C79.5928 47.4282 79.5644 47.4718 79.5324 47.52C79.3767 47.7545 79.1351 48.0979 78.8017 48.5152C78.1344 49.3504 77.1024 50.4782 75.6592 51.6219C72.8543 53.8448 68.4796 56.1429 62.1545 56.4598C62.1354 56.4358 62.1155 56.4109 62.0949 56.385C61.8579 56.0875 61.5226 55.6653 61.1295 55.1667C60.5807 54.4706 59.9204 53.6271 59.2582 52.7669C62.7483 51.5241 65.245 49.7743 66.9161 48.2573C67.856 47.4039 68.5341 46.625 68.9815 46.052C69.2053 45.7654 69.3717 45.53 69.4845 45.3622C69.5409 45.2783 69.584 45.2112 69.6142 45.163C69.6292 45.1389 69.6411 45.1195 69.6499 45.105L69.6606 45.0871L69.6642 45.081L69.6656 45.0787L69.6661 45.0777C69.6664 45.0773 69.6666 45.0769 68.8033 44.5723L69.6666 45.0769L68.237 43.7481C65.7644 45.447 63.4207 46.6368 61.3283 47.4476L61.3081 47.4554L61.2883 47.4641C58.2622 48.7901 55.3689 49.6692 52.5454 50.1706L52.5454 50.1705L52.5316 50.1732C47.3615 51.1663 42.0594 51.145 36.8967 50.1104Z" stroke="white" stroke-width="2"/>
</svg>
