<svg width="195" height="132" viewBox="0 0 195 132" fill="none" xmlns="http://www.w3.org/2000/svg">
<path d="M86.4612 74.9499L86.4611 74.9499V74.9617C86.4611 83.451 80.4682 90.239 73.0692 90.239C65.8044 90.239 59.6772 83.446 59.6772 74.9617C59.6772 66.4723 65.6702 59.6843 73.0692 59.6843C80.4778 59.6843 86.5945 66.4813 86.4612 74.9499ZM110.283 74.9617C110.283 66.4723 116.276 59.6843 123.675 59.6843C131.074 59.6843 137.067 66.4723 137.067 74.9617C137.067 83.451 131.074 90.239 123.675 90.239C116.41 90.239 110.283 83.446 110.283 74.9617Z" stroke="white" stroke-width="1.5"/>
<path d="M146.74 20.3431C141.304 16.8564 133.25 12.5457 122.406 8.88734L122.463 8.81852C122.5 8.81956 122.537 8.82073 122.576 8.82203C123.105 8.83965 123.893 8.8817 124.906 8.97998C126.932 9.17657 129.854 9.5979 133.394 10.4975C140.411 12.2806 149.848 15.9412 159.55 23.4542C159.571 23.4942 159.593 23.5385 159.618 23.5869C159.76 23.8667 159.971 24.2863 160.24 24.8388C160.778 25.9437 161.549 27.5797 162.477 29.6903C164.332 33.9122 166.809 40.0301 169.288 47.5938C174.217 62.6379 179.136 83.3595 179.195 106.236C179.115 106.363 179.011 106.527 178.881 106.723C178.521 107.264 177.967 108.049 177.204 109.002C175.68 110.906 173.328 113.471 170.043 116.07C163.594 121.171 153.524 126.427 138.968 127.071C138.86 126.937 138.736 126.782 138.597 126.608C138.066 125.941 137.313 124.996 136.431 123.879C135.028 122.102 133.299 119.896 131.608 117.693C139.834 114.935 145.651 110.894 149.485 107.42C151.557 105.543 153.049 103.831 154.029 102.579C154.519 101.952 154.881 101.44 155.125 101.078C155.247 100.897 155.339 100.754 155.403 100.652C155.434 100.602 155.459 100.561 155.477 100.532L155.498 100.497L155.505 100.486L155.507 100.482L155.508 100.48C155.508 100.479 155.509 100.479 154.214 99.7209L155.509 100.479L153.366 98.4839C147.777 102.317 142.472 105.006 137.729 106.841L137.698 106.853L137.669 106.866C130.837 109.854 124.295 111.839 117.904 112.972L117.894 112.974L117.884 112.976C106.201 115.216 94.2202 115.168 82.5545 112.834C75.6869 111.435 68.956 109.384 62.4458 106.708L62.4458 106.708L62.4331 106.703C59.0387 105.344 55.7372 103.744 52.5518 101.915C52.2851 101.735 52.0288 101.602 51.8444 101.506L51.8231 101.495C51.6058 101.382 51.4802 101.314 51.3619 101.232L51.2837 101.178L51.1992 101.134C51.1576 101.112 51.1429 101.1 51.1376 101.096L51.1373 101.095C51.1233 101.084 51.1076 101.069 51.0338 100.992L50.8868 100.839L50.703 100.733C49.4822 100.026 48.5361 99.4281 47.8992 99.0092C47.5809 98.7998 47.34 98.6354 47.1808 98.5249C47.1013 98.4696 47.0422 98.4279 47.0041 98.4008L46.9628 98.3712L46.9541 98.3649L46.9534 98.3644L46.9532 98.3643C46.9532 98.3643 46.9532 98.3643 46.9526 98.3651L44.77 100.325L46.0697 99.5765C44.77 100.325 44.7704 100.326 44.7708 100.327L44.7717 100.328L44.774 100.332L44.7805 100.343L44.801 100.378C44.818 100.406 44.8417 100.446 44.8723 100.495C44.9336 100.595 45.0223 100.735 45.1396 100.912C45.3743 101.266 45.7235 101.768 46.1958 102.382C47.1403 103.609 48.5787 105.289 50.5799 107.139C54.2801 110.561 59.9012 114.564 67.8676 117.376C66.1558 119.615 64.3856 121.896 62.9458 123.742C62.0459 124.895 61.2757 125.878 60.7306 126.571C60.5825 126.76 60.451 126.927 60.3381 127.071C45.7877 126.426 35.7551 121.171 29.3432 116.072C26.0755 113.474 23.7412 110.91 22.2297 109.006C21.4742 108.055 20.9254 107.269 20.5694 106.728C20.4399 106.532 20.3359 106.367 20.2569 106.24C20.3154 83.362 25.2347 62.6388 30.1643 47.5938C32.6426 40.0301 35.12 33.9122 36.9752 29.6903C37.9026 27.5797 38.6743 25.9437 39.2122 24.8388C39.4812 24.2863 39.6918 23.8667 39.8341 23.5869C39.8588 23.5385 39.8813 23.4942 39.9018 23.4542C49.6036 15.9412 59.041 12.2806 66.0577 10.4975C69.4284 9.64089 72.2393 9.21794 74.2496 9.00973C63.8496 12.5367 56.0466 16.654 50.6755 20.0489C47.6253 21.977 45.3599 23.6716 43.8489 24.8925C43.0934 25.5029 42.5264 25.9949 42.1442 26.3384C41.9531 26.5101 41.8081 26.6448 41.7088 26.7385C41.6592 26.7854 41.621 26.8221 41.5941 26.8481L41.5624 26.879L41.5529 26.8883L41.5497 26.8915L41.5485 26.8926C41.548 26.8931 41.5476 26.8935 42.6036 27.9589L41.5476 26.8935L43.3439 29.2624C43.3444 29.2632 43.3444 29.2632 43.3443 29.2632L43.3444 29.2631L43.3445 29.2631L43.3455 29.2625L43.351 29.2594L43.3753 29.2457L43.476 29.1892C43.5662 29.1389 43.702 29.0635 43.8816 28.965C44.2409 28.7679 44.7752 28.4786 45.4694 28.1126C46.8559 27.3818 48.8794 26.3458 51.4195 25.1302C66.0753 18.4278 77.6862 16.5889 82.3899 16.169L82.4518 16.1635L82.5131 16.1528C82.6253 16.1334 82.7318 16.1146 82.8338 16.0966C83.5419 15.9717 84.0273 15.8862 84.6135 15.8862H84.7187L84.8229 15.8715C108.532 12.5295 132.647 17.2213 153.606 29.2596L155.407 26.8922L154.353 27.9589C155.407 26.8922 155.407 26.8918 155.407 26.8913L155.405 26.8902L155.402 26.8872L155.393 26.8783L155.363 26.8488C155.337 26.8241 155.301 26.7892 155.254 26.7446C155.159 26.6553 155.021 26.5272 154.839 26.3636C154.476 26.0365 153.936 25.5677 153.219 24.9849C151.783 23.8194 149.632 22.198 146.74 20.3431Z" stroke="white" stroke-width="3"/>
</svg>
