<svg width="45" height="45" viewBox="0 0 45 45" fill="none" xmlns="http://www.w3.org/2000/svg">
<path d="M43.125 5.62481C41.3295 6.89133 39.3414 7.86002 37.2375 8.49356C36.1083 7.19514 34.6075 6.27486 32.9382 5.85717C31.2689 5.43949 29.5116 5.54455 27.9039 6.15816C26.2962 6.77177 24.9158 7.86431 23.9493 9.28803C22.9829 10.7117 22.4769 12.3979 22.5 14.1186V15.9936C19.2049 16.079 15.9399 15.3482 12.9956 13.8663C10.0514 12.3843 7.51934 10.1973 5.625 7.49981C5.625 7.49981 -1.875 24.3748 15 31.8748C11.1385 34.496 6.53842 35.8103 1.875 35.6248C18.75 44.9998 39.375 35.6248 39.375 14.0623C39.3733 13.54 39.3231 13.0191 39.225 12.5061C41.1386 10.6189 42.489 8.23615 43.125 5.62481Z" stroke="white" stroke-width="1.5" stroke-linecap="round" stroke-linejoin="round"/>
</svg>
