<svg width="47" height="39" viewBox="0 0 47 39" fill="none" xmlns="http://www.w3.org/2000/svg">
<g filter="url(#filter0_d)">
<path d="M19.9285 17.2648L19.9284 17.2648V17.2763C19.9284 19.0036 18.753 20.2201 17.4874 20.2201C16.2487 20.2201 15.0464 18.9985 15.0464 17.2763C15.0464 15.549 16.2218 14.3325 17.4874 14.3325C18.7622 14.3325 19.9548 15.558 19.9285 17.2648ZM26.4652 17.2763C26.4652 15.549 27.6406 14.3325 28.9062 14.3325C30.1718 14.3325 31.3472 15.549 31.3472 17.2763C31.3472 19.0036 30.1718 20.2201 28.9062 20.2201C27.6675 20.2201 26.4652 18.9985 26.4652 17.2763Z" stroke="white" stroke-width="1.5"/>
<path d="M32.1993 29.638C32.1993 29.638 31.0731 28.207 30.1346 26.9425C34.2328 25.7112 35.797 22.9824 35.797 22.9824C34.5144 23.8809 33.2943 24.5132 32.1993 24.9458C30.6351 25.6446 29.1335 26.1105 27.6631 26.3768C24.9837 26.9015 22.2359 26.8902 19.5604 26.3435C17.9897 26.0166 16.4504 25.5376 14.9616 24.9125C14.1769 24.5916 13.4138 24.2135 12.6779 23.7811C12.584 23.7146 12.4902 23.6813 12.3963 23.6147C12.3337 23.5814 12.3025 23.5482 12.2712 23.5149C11.708 23.1821 11.3952 22.9492 11.3952 22.9492C11.3952 22.9492 12.8969 25.6114 16.87 26.8759C15.9314 28.1405 14.7739 29.638 14.7739 29.638C7.86007 29.405 5.23218 24.5798 5.23218 24.5798C5.23218 13.8644 9.73713 5.17898 9.73713 5.17898C14.2421 1.58501 18.528 1.68485 18.528 1.68485L18.8409 2.08418C13.2097 3.81461 10.6131 6.44353 10.6131 6.44353C10.6131 6.44353 11.3014 6.0442 12.4589 5.47848C15.8063 3.91444 18.4655 3.48183 19.5604 3.382C19.7481 3.34872 19.9046 3.31544 20.0923 3.31544C25.5173 2.53439 31.0346 3.63115 35.8283 6.44353C35.8283 6.44353 33.3569 3.94772 28.0385 2.21729L28.4765 1.68485C28.4765 1.68485 32.7624 1.58501 37.2674 5.17898C37.2674 5.17898 41.7724 13.8644 41.7724 24.5798C41.7724 24.5798 39.1132 29.405 32.1993 29.638Z" stroke="white" stroke-width="1.5"/>
</g>
<defs>
<filter id="filter0_d" x="-3" y="0" width="52" height="41" filterUnits="userSpaceOnUse" color-interpolation-filters="sRGB">
<feFlood flood-opacity="0" result="BackgroundImageFix"/>
<feColorMatrix in="SourceAlpha" type="matrix" values="0 0 0 0 0 0 0 0 0 0 0 0 0 0 0 0 0 0 127 0"/>
<feOffset dy="4"/>
<feGaussianBlur stdDeviation="2"/>
<feColorMatrix type="matrix" values="0 0 0 0 0 0 0 0 0 0 0 0 0 0 0 0 0 0 0.25 0"/>
<feBlend mode="normal" in2="BackgroundImageFix" result="effect1_dropShadow"/>
<feBlend mode="normal" in="SourceGraphic" in2="effect1_dropShadow" result="shape"/>
</filter>
</defs>
</svg>
