<svg width="41" height="37" viewBox="0 0 41 37" fill="none" xmlns="http://www.w3.org/2000/svg">
<g filter="url(#filter0_d)">
<path d="M39.2916 1.12509C37.6557 2.27903 35.8444 3.16161 33.9275 3.73884C32.8986 2.55584 31.5313 1.71735 30.0103 1.3368C28.4894 0.956238 26.8883 1.05196 25.4235 1.61103C23.9588 2.1701 22.7011 3.16552 21.8205 4.46269C20.9399 5.75985 20.479 7.29616 20.5 8.86384V10.5722C17.4978 10.65 14.523 9.98419 11.8405 8.63398C9.15792 7.28377 6.85094 5.29109 5.12498 2.83342C5.12498 2.83342 -1.70835 18.2084 13.6666 25.0418C10.1484 27.43 5.95721 28.6274 1.70831 28.4584C17.0833 37.0001 35.875 28.4584 35.875 8.81259C35.8734 8.33674 35.8277 7.86206 35.7383 7.39467C37.4818 5.67522 38.7122 3.50431 39.2916 1.12509Z" stroke="white" stroke-width="1.5" stroke-linecap="round" stroke-linejoin="round"/>
</g>
<defs>
<filter id="filter0_d" x="-3.04178" y="0.35791" width="47.0835" height="40.1538" filterUnits="userSpaceOnUse" color-interpolation-filters="sRGB">
<feFlood flood-opacity="0" result="BackgroundImageFix"/>
<feColorMatrix in="SourceAlpha" type="matrix" values="0 0 0 0 0 0 0 0 0 0 0 0 0 0 0 0 0 0 127 0"/>
<feOffset dy="4"/>
<feGaussianBlur stdDeviation="2"/>
<feColorMatrix type="matrix" values="0 0 0 0 0 0 0 0 0 0 0 0 0 0 0 0 0 0 0.25 0"/>
<feBlend mode="normal" in2="BackgroundImageFix" result="effect1_dropShadow"/>
<feBlend mode="normal" in="SourceGraphic" in2="effect1_dropShadow" result="shape"/>
</filter>
</defs>
</svg>
