<svg width="39" height="39" viewBox="0 0 39 39" fill="none" xmlns="http://www.w3.org/2000/svg">
<path d="M14.625 30.8751C6.5 33.3126 6.5 26.8126 3.25 26.0001M26 35.7501V29.4613C26.061 28.6865 25.9563 27.9075 25.6929 27.1762C25.4295 26.445 25.0135 25.7781 24.4725 25.2201C29.575 24.6513 34.9375 22.7176 34.9375 13.8451C34.9371 11.5763 34.0644 9.39453 32.5 7.75133C33.2408 5.7664 33.1884 3.5724 32.3538 1.62508C32.3538 1.62508 30.4363 1.05633 26 4.03008C22.2755 3.02067 18.3495 3.02067 14.625 4.03008C10.1888 1.05633 8.27125 1.62508 8.27125 1.62508C7.43661 3.5724 7.38423 5.7664 8.125 7.75133C6.54896 9.40672 5.67535 11.6082 5.6875 13.8938C5.6875 22.7013 11.05 24.6351 16.1525 25.2688C15.6179 25.8213 15.2056 26.4801 14.9424 27.2024C14.6792 27.9248 14.5711 28.6944 14.625 29.4613V35.7501" stroke="white" stroke-linecap="round" stroke-linejoin="round"/>
</svg>
