<svg width="42" height="42" viewBox="0 0 42 42" fill="none" xmlns="http://www.w3.org/2000/svg">
<path d="M15.4433 32.6024C6.86366 35.1763 6.86366 28.3126 3.43182 27.4547M27.4547 37.7502V31.1096C27.5191 30.2914 27.4085 29.4688 27.1304 28.6966C26.8523 27.9245 26.413 27.2203 25.8417 26.631C31.2297 26.0305 36.8922 23.9885 36.8922 14.6196C36.8918 12.2239 35.9703 9.92004 34.3184 8.18491C35.1006 6.08893 35.0453 3.77217 34.1639 1.7159C34.1639 1.7159 32.1391 1.11533 27.4547 4.25546C23.5218 3.18956 19.3761 3.18956 15.4433 4.25546C10.7588 1.11533 8.73401 1.7159 8.73401 1.7159C7.85268 3.77217 7.79737 6.08893 8.57958 8.18491C6.91536 9.93291 5.99287 12.2576 6.0057 14.6711C6.0057 23.9714 11.6682 26.0133 17.0562 26.6825C16.4917 27.2659 16.0563 27.9616 15.7784 28.7243C15.5005 29.4871 15.3863 30.2998 15.4433 31.1096V37.7502" stroke="#090A0A" stroke-width="2.5" stroke-linecap="round" stroke-linejoin="round"/>
</svg>
