<svg width="41" height="41" viewBox="0 0 41 41" fill="none" xmlns="http://www.w3.org/2000/svg">
<path d="M29.8959 11.1042H29.9129M11.9584 3.41675H29.0417C33.7591 3.41675 37.5834 7.24098 37.5834 11.9584V29.0418C37.5834 33.7592 33.7591 37.5834 29.0417 37.5834H11.9584C7.24092 37.5834 3.41669 33.7592 3.41669 29.0418V11.9584C3.41669 7.24098 7.24092 3.41675 11.9584 3.41675ZM27.3334 19.4238C27.5442 20.8456 27.3013 22.2976 26.6394 23.5734C25.9774 24.8492 24.93 25.8837 23.6461 26.5299C22.3623 27.1761 20.9074 27.4011 19.4883 27.1727C18.0693 26.9444 16.7584 26.2744 15.742 25.2581C14.7257 24.2417 14.0557 22.9308 13.8274 21.5118C13.599 20.0927 13.824 18.6378 14.4702 17.354C15.1164 16.0701 16.1509 15.0227 17.4267 14.3607C18.7025 13.6988 20.1545 13.4559 21.5763 13.6667C23.0265 13.8818 24.3691 14.5576 25.4058 15.5943C26.4425 16.631 27.1183 17.9736 27.3334 19.4238Z" stroke="#090A0A" stroke-width="2.5" stroke-linecap="round" stroke-linejoin="round"/>
</svg>
