<svg width="42" height="40" viewBox="0 0 42 40" fill="none" xmlns="http://www.w3.org/2000/svg">
<path d="M28.6667 13.3333C31.7167 13.3333 34.6417 14.5449 36.7984 16.7015C38.9551 18.8582 40.1667 21.7833 40.1667 24.8333V38.2499H32.5V24.8333C32.5 23.8166 32.0961 22.8416 31.3772 22.1227C30.6584 21.4038 29.6833 20.9999 28.6667 20.9999C27.65 20.9999 26.675 21.4038 25.9561 22.1227C25.2372 22.8416 24.8333 23.8166 24.8333 24.8333V38.2499H17.1667V24.8333C17.1667 21.7833 18.3783 18.8582 20.5349 16.7015C22.6916 14.5449 25.6167 13.3333 28.6667 13.3333Z" stroke="#090A0A" stroke-width="2.5" stroke-linecap="round" stroke-linejoin="round"/>
<path d="M9.5 15.2499H1.83334V38.2499H9.5V15.2499Z" stroke="#090A0A" stroke-width="2.5" stroke-linecap="round" stroke-linejoin="round"/>
<path d="M5.66667 9.49992C7.78376 9.49992 9.5 7.78368 9.5 5.66659C9.5 3.54949 7.78376 1.83325 5.66667 1.83325C3.54958 1.83325 1.83334 3.54949 1.83334 5.66659C1.83334 7.78368 3.54958 9.49992 5.66667 9.49992Z" stroke="#090A0A" stroke-width="2.5" stroke-linecap="round" stroke-linejoin="round"/>
</svg>
