<svg width="41" height="41" viewBox="0 0 41 41" fill="none" xmlns="http://www.w3.org/2000/svg">
<path d="M39.2916 5.12509C37.6557 6.27903 35.8444 7.16161 33.9275 7.73884C32.8986 6.55584 31.5313 5.71735 30.0103 5.3368C28.4894 4.95624 26.8883 5.05196 25.4235 5.61103C23.9588 6.1701 22.7011 7.16552 21.8205 8.46269C20.9399 9.75985 20.479 11.2962 20.5 12.8638V14.5722C17.4978 14.65 14.523 13.9842 11.8405 12.634C9.15792 11.2838 6.85094 9.29109 5.12498 6.83342C5.12498 6.83342 -1.70835 22.2084 13.6666 29.0418C10.1484 31.43 5.95721 32.6274 1.70831 32.4584C17.0833 41.0001 35.875 32.4584 35.875 12.8126C35.8734 12.3367 35.8277 11.8621 35.7383 11.3947C37.4818 9.67522 38.7122 7.50431 39.2916 5.12509Z" stroke="#090A0A" stroke-width="2.5" stroke-linecap="round" stroke-linejoin="round"/>
</svg>
